<?xml version="1.0" encoding="UTF-8" standalone="no"?>
<svg
   viewBox="0 0 512 512"
   version="1.1"
   id="svg4"
   sodipodi:docname="RouteGuardian_Logo_blue.svg"
   inkscape:version="1.2 (dc2aedaf03, 2022-05-15)"
   inkscape:export-filename="RouteGuardian_Logo_blue.png"
   inkscape:export-xdpi="6"
   inkscape:export-ydpi="6"
   xmlns:inkscape="http://www.inkscape.org/namespaces/inkscape"
   xmlns:sodipodi="http://sodipodi.sourceforge.net/DTD/sodipodi-0.dtd"
   xmlns="http://www.w3.org/2000/svg"
   xmlns:svg="http://www.w3.org/2000/svg"
   xmlns:rdf="http://www.w3.org/1999/02/22-rdf-syntax-ns#"
   xmlns:cc="http://creativecommons.org/ns#"
   xmlns:dc="http://purl.org/dc/elements/1.1/">
  <metadata
     id="metadata10">
    <rdf:RDF>
      <cc:Work
         rdf:about="">
        <dc:format>image/svg+xml</dc:format>
        <dc:type
           rdf:resource="http://purl.org/dc/dcmitype/StillImage" />
        <dc:title />
      </cc:Work>
    </rdf:RDF>
  </metadata>
  <defs
     id="defs8" />
  <sodipodi:namedview
     pagecolor="#ffffff"
     bordercolor="#666666"
     borderopacity="1"
     objecttolerance="10"
     gridtolerance="10"
     guidetolerance="10"
     inkscape:pageopacity="0"
     inkscape:pageshadow="2"
     inkscape:window-width="3440"
     inkscape:window-height="1377"
     id="namedview6"
     showgrid="false"
     inkscape:zoom="1.1739077"
     inkscape:cx="138.42656"
     inkscape:cy="374.81652"
     inkscape:window-x="-8"
     inkscape:window-y="-8"
     inkscape:window-maximized="1"
     inkscape:current-layer="svg4"
     inkscape:showpageshadow="2"
     inkscape:pagecheckerboard="0"
     inkscape:deskcolor="#d1d1d1" />
  <!--! Font Awesome Pro 6.2.1 by @fontawesome - https://fontawesome.com License - https://fontawesome.com/license (Commercial License) Copyright 2022 Fonticons, Inc. -->
  <path
     d="M 269.4,2.9 C 265.2,1 260.7,0 256,0 251.3,0 246.8,1 242.6,2.9 L 54.3,82.8 c -22,9.3 -38.4,31 -38.3,57.2 0.5,99.2 41.3,280.7 213.6,363.2 16.7,8 36.1,8 52.8,0 C 454.7,420.7 495.5,239.2 496,140 496.1,113.8 479.7,92.1 457.7,82.8 Z"
     id="path2"
     sodipodi:nodetypes="cscccccccc"
     style="fill:#214478;fill-opacity:1" />
  <g
     inkscape:groupmode="layer"
     id="layer1"
     inkscape:label="Layer 1" />
  <path
     d="m 131.9584,274.7526 c 6.09711,1.52429 12.57531,2.28645 19.18051,2.28645 44.83911,0 81.29472,-36.45564 81.29472,-81.29481 v -81.29477 h 56.1442 c 15.36978,0 29.46937,8.63759 36.32863,22.48312 l 9.14565,18.16429 h 81.29474 c 11.17806,0 20.32371,9.14566 20.32371,20.32365 v 40.64742 c 0,56.1442 -45.47425,101.61845 -101.61845,101.61845 h -60.97106 v 64.40071 c 0,9.27262 -7.49433,16.894 -16.89408,16.894 -2.28643,0 -4.5728,-0.50811 -6.6052,-1.39724 L 124.20998,343.85315 c -11.76265,-7.19455 -17.07849,-19.62492 -11.30501,-30.99364 z m -1.1432,-160.30313 h 50.80926 10.16182 v 40.64741 40.64736 c 0,22.48306 -18.1643,40.64736 -40.64737,40.64736 -22.48312,0 -40.64742,-18.1643 -40.64742,-40.64736 v -60.97108 c 0,-11.17804 9.14568,-20.32369 20.32371,-20.32369 z m 162.58949,60.97106 c 0,-11.17799 -9.14565,-20.32365 -20.32364,-20.32365 -11.17806,0 -20.32371,9.14566 -20.32371,20.32365 0,11.17804 9.14565,20.32371 20.32371,20.32371 11.17799,0 20.32364,-9.14567 20.32364,-20.32371 z"
     id="path2-3"
     style="fill:#69b3e5;stroke-width:1.27023;fill-opacity:1"
     sodipodi:nodetypes="csscsccsssscssccccscccssssssssss" />
</svg>
